<svg xmlns="http://www.w3.org/2000/svg" xmlns:xlink="http://www.w3.org/1999/xlink" width="866.472" height="387.918"
     viewBox="0 0 866.472 387.918">
    <defs>
        <linearGradient id="linear-gradient" x1="1.239" y1="0.339" x2="0.817" y2="0.423"
                        gradientUnits="objectBoundingBox">
            <stop offset="0" stop-color="#7fdf03"/>
            <stop offset="1" stop-color="#3a81c4"/>
        </linearGradient>
        <linearGradient id="linear-gradient-2" x1="14.628" y1="-2.389" x2="9.682" y2="-1.378"
                        xlink:href="#linear-gradient"/>
        <linearGradient id="linear-gradient-3" x1="6.022" y1="-0.629" x2="1.078" y2="0.382"
                        xlink:href="#linear-gradient"/>
        <linearGradient id="linear-gradient-4" x1="0.235" y1="0.563" x2="-0.06" y2="0.635"
                        xlink:href="#linear-gradient"/>
        <linearGradient id="linear-gradient-5" x1="-6.332" y1="1.894" x2="-8.807" y2="2.399"
                        xlink:href="#linear-gradient"/>
    </defs>
    <g id="Group_1" data-name="Group 1" transform="translate(-98.044 -117.996)">
        <g id="Group_19" data-name="Group 19" transform="translate(98.044 278.061)">
            <g id="Group_18" data-name="Group 18">
                <g id="Group_17" data-name="Group 17">
                    <path id="Path_48" data-name="Path 48"
                          d="M123.713,185.288c.892,11.157,11.883,16.474,24.455,16.474a76.65,76.65,0,0,0,23.92-3.533l3.533,18.234c-8.861,3.544-19.662,5.483-31.354,5.483-29.415,0-46.222-17.176-46.222-44.26,0-21.981,13.643-46.234,43.736-46.234,27.988,0,38.61,21.779,38.61,43.213a62.117,62.117,0,0,1-.88,10.622Zm31.711-18.4c0-6.578-2.843-17.545-15.237-17.545-11.335,0-15.927,10.265-16.652,17.545Z"
                          transform="translate(-98.044 -131.453)" fill="#7fdf03"/>
                    <path id="Path_49" data-name="Path 49"
                          d="M105.746,202.84l27.274-34.2c4.972-5.84,8.861-10.1,13.822-15.391v-.369H108.767V131.615H179.6v16.141l-26.037,32.77c-4.77,5.662-9.206,11.145-14.155,15.939v.345h41.607v21.434H105.746Z"
                          transform="translate(-14.134 -129.688)" fill="#7fdf03"/>
                </g>
            </g>
        </g>
        <g id="Group_23" data-name="Group 23" transform="translate(554.225 219.873)">
            <g id="Group_20" data-name="Group 20" transform="translate(0 58.176)">
                <path id="Path_50" data-name="Path 50"
                      d="M214.317,198.93c0,8.338.357,16.307,1.261,21.077H191.313l-1.594-8.671h-.535c-5.674,6.9-14.535,10.622-24.812,10.622-17.521,0-27.976-12.751-27.976-26.561,0-22.5,20.2-33.3,50.837-33.126v-1.237c0-4.6-2.486-11.169-15.76-11.169a48.689,48.689,0,0,0-23.92,6.566l-4.96-17.366c6.03-3.366,17.877-7.613,33.661-7.613,28.868,0,38.063,17.009,38.063,37.373Zm-26.2-19.84c-14.167-.167-25.157,3.2-25.157,13.631,0,6.923,4.627,10.289,10.634,10.289a14.723,14.723,0,0,0,14-9.92,20.43,20.43,0,0,0,.523-4.6Z"
                      transform="translate(-136.396 -131.452)" fill="#3a81c4"/>
                <path id="Path_51" data-name="Path 51"
                      d="M145.37,161.926c0-12.763-.345-21.089-.69-28.535h23.206l.868,15.95h.738c4.4-12.584,15.047-17.889,23.337-17.889a27.9,27.9,0,0,1,5.7.357v25.5a26.962,26.962,0,0,0-7.268-.88c-9.92,0-16.64,5.3-18.425,13.631a32.565,32.565,0,0,0-.535,6.019v43.927H145.37Z"
                      transform="translate(-46.145 -131.452)" fill="#3a81c4"/>
                <path id="Path_52" data-name="Path 52"
                      d="M236.836,207.434c0,16.653-3.354,30.3-13.1,38.967-9.575,8.148-22.493,10.634-35.256,10.634-11.324,0-23.385-2.308-31.164-6.744l5.293-20.363a53.192,53.192,0,0,0,25.157,6.554c12.751,0,22.5-6.911,22.5-22.85V207.97h-.345c-5.138,7.268-13.477,11.336-23.4,11.336-21.434,0-36.671-17.354-36.671-42.333,0-27.81,18.08-45.521,39.323-45.521,11.895,0,19.329,5.139,23.741,12.216h.357l.88-10.277H237.55c-.345,5.5-.714,12.751-.714,25.68ZM209.93,168.646a21.782,21.782,0,0,0-.535-4.96c-1.951-7.089-7.089-11.871-14.523-11.871-9.754,0-17.711,8.861-17.711,24.622,0,12.929,6.375,23.028,17.711,23.028a14.6,14.6,0,0,0,14.155-10.979,22.763,22.763,0,0,0,.9-7.1Z"
                      transform="translate(10.321 -131.452)" fill="#3a81c4"/>
            </g>
            <g id="Group_21" data-name="Group 21" transform="translate(336.831)">
                <path id="Path_53" data-name="Path 53" d="M176.8,130.926H164.714v-4.365h29.451v4.365H182v35.422h-5.2Z"
                      transform="translate(-164.714 -126.561)" fill="#3a81c4"/>
                <path id="Path_54" data-name="Path 54"
                      d="M202.075,148.863c-.3-5.543-.654-12.216-.595-17.176H201.3c-1.356,4.675-3.009,9.694-5.019,15.118l-7.018,19.3h-3.9l-6.423-18.948c-1.891-5.626-3.5-10.753-4.615-15.475h-.119c-.119,4.96-.416,11.633-.761,17.592l-1.071,17.069h-4.9l2.783-39.787h6.554l6.78,19.245c1.677,4.889,3.021,9.254,4.021,13.393h.19c1-4.008,2.415-8.374,4.175-13.393l7.089-19.245h6.554l2.486,39.787h-5.019Z"
                      transform="translate(-134.645 -126.561)" fill="#3a81c4"/>
            </g>
            <g id="Group_22" data-name="Group 22" transform="translate(264.927 58.306)">
                <path id="Path_55" data-name="Path 55" d="M247.019,131.463h-88.35v70.683l17.668,17.667h70.682Z"
                      transform="translate(-158.669 -131.463)" fill="#3a81c4"/>
            </g>
            <path id="Path_56" data-name="Path 56"
                  d="M160.918,159.086c0,14.88,6.2,26.037,17.711,26.037,10.455,0,17.176-10.444,17.176-26.037,0-12.929-4.948-26.025-17.176-26.025C165.688,133.061,160.918,146.347,160.918,159.086Z"
                  transform="translate(130.761 -55.746)" fill="#fff"/>
        </g>
        <g id="Group_25" data-name="Group 25" transform="translate(175.977 117.996)">
            <path id="Path_57" data-name="Path 57"
                  d="M256.284,239.427l29.094-.785c1.677,0,2.51,1.035,2.51,3.116,0,2.355-2.974,3.794-8.9,4.306l-29,.987-53.085,65.658q-47.727,54.436-67.716,54.429-9.51,0-9.516-12.751,0-28.4,37.385-65.67,37.343-37.29,76.934-46.246l39.419-50.635-31.176,27.786q-28.565,23.6-38.824,23.611-11.99,0-11.978-16.938,0-14.684,13.9-34.459l23.218-29.32q-22.445,19.983-51.6,43.213-23.8,18.859-32.151,24.372-23.034,15.415-37.337,15.415c-1.487,0-2.284-.857-2.284-2.545,0-2.212,1.285-3.664,3.818-4.294q24-5.906,66.253-40.477l33.317-27.381,21.505-18.984q18.056-15.576,20.375-15.582a15.457,15.457,0,0,1,9.4,3.33c3.009,2.224,4.472,4.936,4.472,8.112l-30.058,34.9q-30.081,35.684-30.081,47.483c0,2.3,1.273,3.438,3.806,3.438q11.437,0,55.774-42.333,32.562-31.08,54.061-55.5c2.926-3.295,5.019-4.948,6.3-4.948a13.66,13.66,0,0,1,7.494,2.557c2.617,1.725,3.913,3.723,3.913,5.995,0,1.273-.845,2.771-2.462,4.556Q297.98,181.863,256.284,239.427Zm-28.963,11.419q-38.289,12.364-69.464,45.211Q126.7,328.886,126.7,350.022c0,4.306,1.534,6.471,4.6,6.471Q149.56,356.493,227.321,250.845Z"
                  transform="translate(-98.157 20.779)" fill="url(#linear-gradient)"/>
            <path id="Path_58" data-name="Path 58"
                  d="M124.246,149.088a9.825,9.825,0,1,1-9.825-9.8A9.833,9.833,0,0,1,124.246,149.088Z"
                  transform="translate(-104.596 113.96)" fill="url(#linear-gradient-2)"/>
            <path id="Path_59" data-name="Path 59"
                  d="M139.045,149.113a9.825,9.825,0,1,1-9.825-9.813A9.823,9.823,0,0,1,139.045,149.113Z"
                  transform="translate(56.633 114.102)" fill="url(#linear-gradient-3)"/>
            <path id="Path_60" data-name="Path 60"
                  d="M416.787,155.868q-6.512,28.868-40.18,68.965-36.344,43.142-62.054,43.142-15.237,0-15.213-14.464,0-21.892,40.144-58.248,35.987-32.329,62.244-43.023c7.22-13.31-6.209-17.2-16.974-17.2-23.135,0-79.729,26.668-150.633,86.271C163.2,280.9,132.007,331.872,150.23,356.768c10.146,12.917,26.775,25.847,75.233,6.209,14.119-5.721,28.131-14.773,42.832-25.324l18.08-13.524c2.022,0,3.069,1.855,3.069,5.531q0,13.7-27.024,31.414a239.391,239.391,0,0,1-40.1,21.018q-22.16,9.242-43.094,9.242c-16.01,0-29.5-4.829-40.561-14.464q-17.36-15.04-17.33-38.824,0-50.26,60.746-110.417,48.887-48.548,105.624-77.291,64-32.347,97.464-32.341,30.849,0,32.365,29.106c4.068-1.534,25.764-7.755,27.667-7.755,2.284,0,6.649,8.017,4.306,8.314C442.634,148.517,425.53,153.061,416.787,155.868Zm-19.21,6.827q-32.329,16.539-60.436,47.6-28.119,31.045-28.119,39.978c0,2.8,1.094,4.187,3.235,4.187q13.328,0,46.175-38.384Q386.729,183.053,397.578,162.7Z"
                  transform="translate(77.801 -117.996)" fill="url(#linear-gradient-4)"/>
            <g id="Group_24" data-name="Group 24" transform="translate(509.718 3.83)">
                <path id="Path_61" data-name="Path 61"
                      d="M186.7,137.956a19.626,19.626,0,1,1-19.614-19.638A19.612,19.612,0,0,1,186.7,137.956Z"
                      transform="translate(-147.449 -118.318)" fill="url(#linear-gradient-5)"/>
            </g>
        </g>
    </g>
</svg>
